<?xml version="1.0" encoding="UTF-8" standalone="no"?>
<svg
   width="2500"
   height="2500"
   viewBox="2.375 2.2 285.256 285.23002"
   version="1.1"
   id="svg12"
   sodipodi:docname="nasa-6.svg"
   inkscape:version="1.3.2 (091e20e, 2023-11-25)"
   inkscape:export-filename="nasa-6-32.png"
   inkscape:export-xdpi="1.2288001"
   inkscape:export-ydpi="1.2288001"
   xmlns:inkscape="http://www.inkscape.org/namespaces/inkscape"
   xmlns:sodipodi="http://sodipodi.sourceforge.net/DTD/sodipodi-0.dtd"
   xmlns="http://www.w3.org/2000/svg"
   xmlns:svg="http://www.w3.org/2000/svg">
  <defs
     id="defs12" />
  <sodipodi:namedview
     id="namedview12"
     pagecolor="#000000"
     bordercolor="#000000"
     borderopacity="0"
     inkscape:showpageshadow="2"
     inkscape:pageopacity="0.0"
     inkscape:pagecheckerboard="0"
     inkscape:deskcolor="#d1d1d1"
     inkscape:zoom="0.1712"
     inkscape:cx="1247.0794"
     inkscape:cy="1030.9579"
     inkscape:window-width="1392"
     inkscape:window-height="1212"
     inkscape:window-x="0"
     inkscape:window-y="25"
     inkscape:window-maximized="0"
     inkscape:current-layer="svg12"
     inkscape:export-bgcolor="#00000000" />
  <path
     fill="#0f3a97"
     d="m 252.51,145.54541 c 0,64.618 -53.233,117.8 -117.92,117.8 -64.685,0 -117.92,-53.185 -117.92,-117.8 0,-64.62144 51.99,-117.799447 117.92,-117.799447 63.436,0 117.92,53.181007 117.92,117.799447"
     id="path1" />
  <path
     fill="#ffffff"
     d="m 161.188,207.54541 c 50.379,20.725 41.638,-31.646 14.783,-71.747 C 160.75,113.08068 140.9,94.15297 128.38,85.01897 c -41.513,-30.298 -67.14,-11.922 -37.826,47.82944 9.478,19.319 21.651,32.358 31.159,44.648 7.261,9.383 21.404,14.081 16.422,18.531 -5.615,5.021 -19.209,-17.123 -19.209,-17.123 -10.04,-12.108 -19.61,-25.028 -29.473,-42.76 C 66.92,95.64797 70.169,54.31397 110.958,72.31897 c 34.615,15.288 67.678,58.16544 80.973,88.61544 6.139,14.062 22.879,69.692 -30.438,47.2"
     id="path2" />
  <path
     fill="#f7410a"
     d="m 4.526,180.46541 c 22.163,-14.76 43.176,-24.29 78.935,-36.102 50.249,-16.6 88.067,-27.7578 134.472,-51.08144 20.771,-10.438 56.811,-33.847 69.698,-54.196 -3.858,7.876 -15.812,23.206 -21.22,29.985 -62.96,78.83244 -197.07,74.36244 -261,112.20844"
     id="path3" />
  <path
     fill="#ffffff"
     d="m 36.678,122.84847 c 20.284,0.159 18.294,-0.041 18.531,0.197 0.354,0 16.196,27.28094 16.196,27.51794 0,0.115 -0.118,-9.696 -0.118,-21.967 0,-1.417 -3.899,-5.54994 -3.783,-5.54994 5.79,0 13.357,0.11799 13.357,0.11799 -2.835,3.30695 -3.402,3.03395 -3.426,5.07895 -0.08,6.57 -0.154,18.716 0,32.356 0.022,2.045 1.537,2.835 4.02,6.378 H 62.893 c -6.029,-10.038 -17.077,-28.869 -17.022,-28.814 0.085,0.086 -0.238,11.812 0.116,21.257 0.119,3.121 1.538,4.133 4.14,6.969 0,0 2.993,-0.08 -14.542,0.117 5.32,-2.835 4.613,-6.377 4.611,-6.495 -0.191,-13.052 -0.04,-24.211 -0.04,-31.415 0,-1.181 -0.08,-1.064 -3.743,-5.55094 m 63.687,19.95994 c 1.703,-5.913 3.158,-11.197 3.849,-14.644 0.117,-0.591 -1.3,-2.716 -3.546,-4.84196 l -0.159,-0.32999 c 10.831,0.035 22.146,0.096 22.146,0.096 2.956,7.20195 9.693,27.39595 14.777,39.79795 1.344,3.275 3.665,3.896 3.665,3.896 -9.221,-0.117 -26.333,-0.037 -26.242,-0.117 4.609,-4.136 4.018,-4.136 2.008,-10.154 h -14.421 c -2.956,6.848 0.921,10.062 1.417,10.037 -3.282,0.17 -14.421,0 -14.421,0 6.029,-4.254 5.673,-5.552 5.673,-5.552 1.656,-5.892 3.575,-12.347 5.255,-18.189 l 5.917,0.001 -2.542,8.148 h 11.47 l -6.385,-16.298 -2.542,8.148 -5.917,-0.001 m 99.068,0.593 c 1.7,-5.911 3.156,-11.197 3.847,-14.644 0.116,-0.59 -1.303,-2.715 -3.548,-4.84297 l -0.159,-0.32799 c 10.834,0.035 22.151,0.095 22.151,0.095 2.951,7.20396 9.69,27.39596 14.772,39.79796 1.343,3.279 3.662,3.896 3.662,3.896 -9.215,-0.117 -26.328,-0.037 -26.239,-0.117 4.61,-4.133 4.021,-4.133 2.011,-10.154 h -14.424 c -2.956,6.849 0.919,10.062 1.415,10.039 -3.279,0.168 -14.421,0 -14.421,0 6.029,-4.252 5.676,-5.552 5.676,-5.552 1.656,-5.894 3.574,-12.346 5.257,-18.19 h 5.916 c -1.274,4.077 -2.54,8.151 -2.54,8.151 h 11.464 l -6.385,-16.3 c 0,0 -1.267,4.073 -2.539,8.147 l -5.916,0.002 m -18.649,-9.68 c -0.235,-8.39 0,-11.10394 0,-11.10394 -3.666,2.95394 -1.815,2.57694 -10.992,1.06298 -26.444,-4.36291 -28.459,20.32396 -14.068,25.86096 12.08,4.65 16.359,5.562 14.539,9.919 -0.591,1.422 -11.584,6.616 -22.932,-3.896 l 0.231,14.645 c 1.42,-1.461 5.323,-4.133 5.323,-4.133 0.115,0 12.3,5.367 23.286,-0.236 16.907,-8.619 8.469,-22.572 -9.574,-28.106 -15.015,-4.606 -0.828,-15.35393 14.065,-3.897 M 136.25,38.44397 a 0.965,0.965 0 0 1 -0.96,0.962 0.966,0.966 0 0 1 -0.96,-0.962 c 0,-0.522 0.435,-0.958 0.96,-0.958 a 0.963,0.963 0 0 1 0.96,0.958 m 6.66,14.542 c 0,0.648 -0.538,1.183 -1.182,1.183 a 1.189,1.189 0 0 1 -1.184,-1.183 c 0,-0.646 0.534,-1.179 1.184,-1.179 0.645,0 1.182,0.532 1.182,1.179 m 17.278,23.766 c 0,0.646 -0.53,1.181 -1.183,1.181 a 1.19,1.19 0 0 1 -1.182,-1.181 c 0,-0.648 0.495,-1.184 1.146,-1.184 0.652,0.002 1.219,0.536 1.219,1.184 m -27.778,-15.573 a 0.963,0.963 0 0 1 -0.96,0.959 0.965,0.965 0 0 1 -0.962,-0.959 c 0,-0.525 0.435,-0.96 0.962,-0.96 a 0.963,0.963 0 0 1 0.96,0.96 m 10.35,5.463 a 0.965,0.965 0 0 1 -0.959,0.958 0.966,0.966 0 0 1 -0.961,-0.958 c 0,-0.525 0.435,-0.959 0.961,-0.959 0.525,0 0.959,0.434 0.959,0.959 m -13.45,-15.281 c 0,0.648 -0.534,1.183 -1.182,1.183 -0.648,0 -1.182,-0.532 -1.182,-1.183 0,-0.646 0.534,-1.182 1.182,-1.182 0.648,0 1.182,0.534 1.182,1.182 m -15.66,9.523 c 0,0.527 -0.433,0.96 -0.961,0.96 a 0.965,0.965 0 0 1 -0.96,-0.96 c 0,-0.525 0.434,-0.96 0.96,-0.96 a 0.964,0.964 0 0 1 0.961,0.96 m 2.8,1.917 a 0.966,0.966 0 0 1 -0.962,0.962 0.967,0.967 0 0 1 -0.962,-0.962 0.963,0.963 0 0 1 1.924,0 m 2.81,1.92 a 0.965,0.965 0 0 1 -0.96,0.962 0.966,0.966 0 0 1 -0.961,-0.962 c 0,-0.523 0.435,-0.957 0.961,-0.957 0.527,0 0.96,0.433 0.96,0.957 m -4.28,3.692 a 0.97,0.97 0 0 1 -0.962,0.96 0.967,0.967 0 0 1 -0.962,-0.96 c 0,-0.525 0.434,-0.959 0.962,-0.959 0.525,0 0.962,0.434 0.962,0.959 m -22.316,15.647 a 0.964,0.964 0 0 1 -0.962,0.958 c -0.527,0 -0.961,-0.432 -0.961,-0.958 0,-0.526 0.435,-0.961 0.961,-0.961 0.526,0 0.962,0.434 0.962,0.961 m 4.136,5.021 a 0.967,0.967 0 0 1 -0.961,0.959 0.968,0.968 0 0 1 -0.962,-0.959 c 0,-0.528 0.435,-0.96 0.962,-0.96 0.527,0 0.961,0.432 0.961,0.96 m -3.288,81.04444 a 0.965,0.965 0 0 1 -0.961,0.959 c -0.527,0 -0.96,-0.434 -0.96,-0.959 0,-0.525 0.433,-0.961 0.96,-0.961 0.528,0 0.961,0.436 0.961,0.961 m 0.591,22.359 c 0,0.648 -0.534,1.182 -1.182,1.182 -0.648,0 -1.182,-0.531 -1.182,-1.182 0,-0.646 0.534,-1.18 1.182,-1.18 a 1.188,1.188 0 0 1 1.182,1.18 m -12.711,11.452 a 0.965,0.965 0 0 1 -0.959,0.958 0.966,0.966 0 0 1 -0.961,-0.958 c 0,-0.529 0.435,-0.961 0.961,-0.961 0.525,0 0.959,0.431 0.959,0.961 m -15.218,4.638 a 1.19,1.19 0 0 1 -1.184,1.182 1.186,1.186 0 0 1 -1.182,-1.182 c 0,-0.647 0.534,-1.182 1.182,-1.182 a 1.191,1.191 0 0 1 1.184,1.182 m -3.104,-10.329 c 0,0.645 -0.534,1.179 -1.18,1.179 a 1.188,1.188 0 0 1 -1.182,-1.179 1.19,1.19 0 0 1 1.182,-1.185 c 0.646,0.003 1.18,0.536 1.18,1.185 m -1.771,6.57 c 0,0.527 -0.435,0.959 -0.961,0.959 -0.526,0 -0.962,-0.432 -0.962,-0.959 0,-0.523 0.436,-0.96 0.962,-0.96 0.526,0 0.961,0.434 0.961,0.96 m -11.381,-5.459 a 0.965,0.965 0 0 1 -0.958,0.959 0.966,0.966 0 0 1 -0.962,-0.959 c 0,-0.523 0.434,-0.959 0.962,-0.959 0.524,0 0.958,0.433 0.958,0.959 m 39.75,18.449 c 0,0.527 -0.397,0.961 -0.922,0.961 -0.527,0 -0.999,-0.434 -0.999,-0.961 0,-0.525 0.435,-0.96 0.96,-0.96 0.529,0 0.961,0.434 0.961,0.96 m 11.972,-8.78 c 0,0.648 -0.496,1.184 -1.146,1.184 -0.648,0 -1.218,-0.533 -1.218,-1.184 0,-0.646 0.534,-1.18 1.182,-1.18 a 1.188,1.188 0 0 1 1.182,1.18 m 1.37,11.29 c 0,0.527 -0.473,0.963 -0.997,0.963 a 0.968,0.968 0 0 1 -0.962,-0.963 c 0,-0.523 0.434,-0.957 0.962,-0.957 0.524,-0.001 0.997,0.431 0.997,0.957 m 49.2,-10.78 a 0.968,0.968 0 0 1 -0.958,0.961 0.97,0.97 0 0 1 -0.964,-0.961 c 0,-0.527 0.434,-0.959 0.964,-0.959 0.524,0 0.958,0.432 0.958,0.959 m -22.9,8.119 a 0.963,0.963 0 0 1 -0.96,0.959 0.965,0.965 0 0 1 -0.96,-0.959 c 0,-0.523 0.435,-0.959 0.96,-0.959 0.528,0 0.96,0.434 0.96,0.959 m 61.621,11.67 a 0.967,0.967 0 0 1 -0.961,0.959 0.967,0.967 0 0 1 -0.963,-0.959 c 0,-0.524 0.436,-0.959 0.963,-0.959 0.525,0 0.961,0.433 0.961,0.959 m 5.019,-45.399 a 1.19,1.19 0 0 1 -1.184,1.183 1.19,1.19 0 0 1 -1.183,-1.183 c 0,-0.648 0.533,-1.183 1.183,-1.183 a 1.189,1.189 0 0 1 1.184,1.183 m -9.45,6.42 a 0.968,0.968 0 0 1 -0.963,0.961 c -0.524,0 -0.959,-0.435 -0.959,-0.961 0,-0.526 0.435,-0.958 0.959,-0.958 0.528,0 0.963,0.431 0.963,0.958 m 9.312,1.85 c 0,0.647 -0.533,1.184 -1.184,1.184 -0.651,0 -1.184,-0.534 -1.184,-1.184 0,-0.646 0.533,-1.182 1.184,-1.182 0.651,0 1.184,0.536 1.184,1.182 m -9.312,11.44 a 0.966,0.966 0 0 1 -0.963,0.959 0.966,0.966 0 0 1 -0.959,-0.959 c 0,-0.527 0.435,-0.961 0.959,-0.961 0.528,0 0.963,0.433 0.963,0.961 m 24.08,-26.13 c 0,0.524 -0.437,0.96 -0.961,0.96 a 0.967,0.967 0 0 1 -0.959,-0.96 c 0,-0.526 0.434,-0.958 0.959,-0.958 0.525,0 0.961,0.432 0.961,0.958 m 2.33,5.83 c 0,0.647 -0.493,1.183 -1.144,1.183 -0.649,0 -1.22,-0.533 -1.22,-1.183 0,-0.648 0.533,-1.181 1.181,-1.181 0.65,0.002 1.183,0.533 1.183,1.181 m 16.59,6.94 c 0,0.647 -0.528,1.182 -1.183,1.182 a 1.188,1.188 0 0 1 -1.184,-1.182 1.19,1.19 0 0 1 1.184,-1.183 1.187,1.187 0 0 1 1.183,1.183 m -16.851,12.331 a 0.968,0.968 0 0 1 -0.963,0.959 0.966,0.966 0 0 1 -0.961,-0.959 c 0,-0.527 0.436,-0.961 0.961,-0.961 0.525,0 0.963,0.431 0.963,0.961 m 10.641,-10.041 a 0.964,0.964 0 0 1 -0.959,0.959 0.966,0.966 0 0 1 -0.96,-0.959 c 0,-0.524 0.437,-0.96 0.96,-0.96 0.525,0 0.959,0.433 0.959,0.96 m -1.96,15.5 a 0.964,0.964 0 0 1 -0.959,0.959 0.965,0.965 0 0 1 -0.963,-0.959 c 0,-0.523 0.434,-0.96 0.963,-0.96 0.525,0 0.959,0.434 0.959,0.96 m 4.51,-25.76 c 0,0.811 -0.668,1.476 -1.479,1.476 -0.81,0 -1.477,-0.665 -1.477,-1.476 0,-0.81 0.667,-1.475 1.477,-1.475 0.811,0 1.479,0.665 1.479,1.475"
     id="path4" />
  <path
     fill="#ffffff"
     d="m 224.358,177.80541 -0.439,4.059 -4.027,0.444 4.062,0.44 0.444,4.209 0.444,-4.209 3.988,-0.518 -4.024,-0.369 -0.448,-4.056 m -8.868,30.179 c 0,0.812 -0.667,1.479 -1.478,1.479 a 1.485,1.485 0 0 1 -1.479,-1.479 c 0,-0.81 0.668,-1.475 1.479,-1.475 a 1.484,1.484 0 0 1 1.478,1.475"
     id="path5" />
  <path
     fill="#ffffff"
     d="m 214.021,203.48441 -0.444,4.061 -4.025,0.441 4.062,0.444 0.445,4.205 0.444,-4.205 3.986,-0.518 -4.027,-0.37 -0.441,-4.058 M 105.26,86.05097 c 0,0.81 -0.667,1.476 -1.477,1.476 a 1.483,1.483 0 0 1 -1.479,-1.476 c 0,-0.812 0.666,-1.477 1.479,-1.477 0.81,0.002 1.477,0.667 1.477,1.477"
     id="path6" />
  <path
     fill="#ffffff"
     d="m 103.78,81.54897 -0.444,4.059 -4.028,0.444 4.064,0.439 0.444,4.211 0.442,-4.211 3.99,-0.514 -4.028,-0.371 -0.44,-4.057 m 56.449,-31.22 c 0,0.81 -0.668,1.477 -1.479,1.477 -0.811,0 -1.476,-0.667 -1.476,-1.477 0,-0.812 0.664,-1.479 1.476,-1.479 0.812,0 1.479,0.669 1.479,1.479"
     id="path7" />
  <path
     fill="#ffffff"
     d="m 158.75,45.82297 -0.44,4.062 -4.026,0.444 4.063,0.441 0.44,4.208 0.444,-4.208 3.988,-0.518 -4.027,-0.369 -0.442,-4.06 M 93.4,231.61541 c 0,0.812 -0.667,1.477 -1.477,1.477 a 1.484,1.484 0 0 1 -1.479,-1.477 c 0,-0.809 0.667,-1.478 1.479,-1.478 0.81,0.001 1.477,0.67 1.477,1.478"
     id="path8" />
  <path
     fill="#ffffff"
     d="m 91.958,227.10641 -0.442,4.062 -4.027,0.442 4.063,0.441 0.443,4.208 0.442,-4.208 3.99,-0.516 -4.026,-0.37 -0.443,-4.059"
     id="path9" />
  <path
     fill="#f7410a"
     d="m 287.62,39.08697 c -17.971,53.312 -89.96,94.47844 -150.56,133.77644 -36.559,23.717 -72.856,51.014 -97.844,74.24 -6.586,6.125 1.342,-2.291 -1.182,0.296 34.872,-40.151 74.986,-64.067 97.153,-79.122 37.489,-25.469 58.812,-31.888 123.49,-91.46244"
     id="path10" />
  <path
     fill="#ee293d"
     d="m 19.515,171.16541 c -6.454,3.155 -12.235,6.274 -17.14,9.319 l 2.984,1.086 c 4.29,-2.641 9.44,-5.396 14.865,-7.823 m 33.363,57.077 a 647.95,647.95 0 0 0 -18.113,16.406 l -0.27,4.071 c 5.6,-5.771 12.479,-11.998 20.418,-18.608"
     id="path11" />
  <path
     fill="#ffffff"
     d="m 161.188,207.54541 c 50.379,20.725 41.638,-31.646 14.783,-71.747 -15.222,-22.71773 -33.992,-40.73944 -47.592,-50.77944 -15.88,-11.725 -17.43,-12.697 -17.43,-12.697 35.462,16.831 67.678,58.16444 80.971,88.61644 6.141,14.061 22.88,69.691 -30.438,47.199"
     id="path12" />
</svg>
